<?xml version="1.0" encoding="utf-8"?>
<!-- Generator: Adobe Illustrator 14.0.0, SVG Export Plug-In . SVG Version: 6.00 Build 43363)  -->
<!DOCTYPE svg PUBLIC "-//W3C//DTD SVG 1.1//EN" "http://www.w3.org/Graphics/SVG/1.1/DTD/svg11.dtd">
<svg version="1.1" id="Ebene_1" xmlns="http://www.w3.org/2000/svg" xmlns:xlink="http://www.w3.org/1999/xlink" x="0px" y="0px"
	 width="841.89px" height="595.28px" viewBox="0 0 841.89 595.28" enable-background="new 0 0 841.89 595.28" xml:space="preserve">
<g>
	<path d="M363.579,315.122l4.927,2.589c-1.617,3.173-3.482,5.734-5.601,7.683c-2.117,1.949-4.5,3.432-7.148,4.448
		c-2.646,1.016-5.643,1.524-8.986,1.524c-7.412,0-13.208-2.43-17.387-7.287c-4.18-4.858-6.27-10.349-6.27-16.474
		c0-5.764,1.769-10.9,5.309-15.41c4.484-5.736,10.49-8.602,18.013-8.602c7.746,0,13.932,2.938,18.557,8.811
		c3.288,4.148,4.959,9.326,5.016,15.535h-40.881c0.11,5.275,1.797,9.603,5.058,12.977c3.261,3.374,7.289,5.062,12.084,5.062
		c2.312,0,4.562-0.402,6.751-1.206c2.187-0.805,4.046-1.872,5.58-3.204C360.136,320.237,361.796,318.089,363.579,315.122z
		 M363.579,302.887c-0.78-3.118-1.917-5.61-3.408-7.475c-1.492-1.866-3.463-3.368-5.917-4.51c-2.452-1.142-5.031-1.712-7.733-1.712
		c-4.46,0-8.294,1.434-11.499,4.302c-2.341,2.088-4.113,5.22-5.31,9.396H363.579z"/>
	<path d="M381.181,266.055c1.332,0,2.467,0.474,3.41,1.42c0.943,0.947,1.415,2.088,1.415,3.424c0,1.31-0.472,2.437-1.415,3.383
		c-0.943,0.946-2.079,1.419-3.41,1.419c-1.303,0-2.426-0.473-3.367-1.419c-0.942-0.946-1.414-2.073-1.414-3.383
		c0-1.336,0.472-2.477,1.414-3.424C378.755,266.528,379.877,266.055,381.181,266.055z M378.279,284.763h5.846v45.434h-5.846V284.763
		z"/>
	<path d="M394.524,284.763h5.846v8.145c2.338-3.119,4.928-5.451,7.767-6.997c2.839-1.544,5.93-2.317,9.27-2.317
		c3.397,0,6.411,0.862,9.042,2.588c2.631,1.727,4.572,4.051,5.825,6.975c1.253,2.923,1.879,7.474,1.879,13.656v23.384h-5.847
		v-21.672c0-5.234-0.216-8.729-0.65-10.482c-0.676-3.007-1.977-5.268-3.896-6.786c-1.921-1.518-4.429-2.276-7.519-2.276
		c-3.536,0-6.705,1.169-9.502,3.508c-2.797,2.339-4.643,5.234-5.533,8.686c-0.556,2.256-0.835,6.375-0.835,12.361v16.661h-5.846
		V284.763z"/>
	<path d="M489.403,267.224v62.972h-5.765v-7.809c-2.449,2.979-5.199,5.22-8.247,6.723c-3.049,1.504-6.383,2.256-10.001,2.256
		c-6.431,0-11.922-2.333-16.475-6.996c-4.55-4.662-6.826-10.335-6.826-17.016c0-6.542,2.297-12.138,6.891-16.788
		c4.593-4.648,10.118-6.973,16.578-6.973c3.729,0,7.105,0.793,10.126,2.379c3.02,1.587,5.672,3.967,7.954,7.142v-25.891H489.403z
		 M466.039,289.23c-3.254,0-6.258,0.8-9.01,2.399c-2.754,1.6-4.943,3.846-6.571,6.736c-1.625,2.893-2.438,5.951-2.438,9.177
		c0,3.198,0.82,6.258,2.459,9.176c1.643,2.92,3.846,5.194,6.611,6.82c2.768,1.627,5.735,2.44,8.906,2.44
		c3.199,0,6.228-0.808,9.093-2.42c2.863-1.612,5.068-3.795,6.611-6.548c1.541-2.753,2.315-5.854,2.315-9.301
		c0-5.256-1.731-9.649-5.193-13.182C475.359,290.997,471.1,289.23,466.039,289.23z"/>
	<path d="M502.721,267.224h5.847v25.683c2.367-3.119,4.97-5.451,7.809-6.997c2.84-1.544,5.916-2.317,9.229-2.317
		c3.397,0,6.41,0.862,9.042,2.588c2.63,1.727,4.571,4.045,5.822,6.953c1.253,2.91,1.881,7.468,1.881,13.677v23.384h-5.846v-21.672
		c0-5.234-0.21-8.729-0.627-10.482c-0.723-3.007-2.038-5.268-3.946-6.786c-1.906-1.518-4.404-2.276-7.495-2.276
		c-3.535,0-6.702,1.169-9.501,3.508c-2.798,2.339-4.641,5.234-5.531,8.686c-0.558,2.228-0.836,6.348-0.836,12.361v16.661h-5.847
		V267.224z"/>
	<path d="M572.002,283.594c6.999,0,12.8,2.534,17.402,7.599c4.182,4.623,6.275,10.092,6.275,16.413
		c0,6.348-2.212,11.894-6.631,16.64c-4.421,4.747-10.104,7.121-17.047,7.121c-6.972,0-12.668-2.374-17.09-7.121
		c-4.419-4.746-6.628-10.292-6.628-16.64c0-6.292,2.09-11.749,6.274-16.371C559.159,286.141,564.977,283.594,572.002,283.594z
		 M571.981,289.314c-4.86,0-9.038,1.795-12.531,5.387c-3.491,3.592-5.237,7.935-5.237,13.029c0,3.285,0.796,6.348,2.39,9.187
		c1.592,2.839,3.741,5.032,6.453,6.577c2.71,1.545,5.685,2.317,8.926,2.317c3.24,0,6.215-0.772,8.925-2.317
		c2.709-1.545,4.861-3.738,6.454-6.577s2.389-5.901,2.389-9.187c0-5.095-1.754-9.437-5.259-13.029
		C580.983,291.109,576.813,289.314,571.981,289.314z"/>
	<path d="M597.812,284.763h6.222l15.251,33.118l15.066-33.118h6.264l-20.796,45.434h-1.085L597.812,284.763z"/>
	<path d="M684.255,315.122l4.928,2.589c-1.618,3.173-3.481,5.734-5.602,7.683c-2.118,1.949-4.5,3.432-7.147,4.448
		c-2.646,1.016-5.643,1.524-8.986,1.524c-7.413,0-13.208-2.43-17.387-7.287c-4.18-4.858-6.27-10.349-6.27-16.474
		c0-5.764,1.769-10.9,5.309-15.41c4.485-5.736,10.489-8.602,18.014-8.602c7.745,0,13.931,2.938,18.556,8.811
		c3.289,4.148,4.96,9.326,5.017,15.535h-40.882c0.112,5.275,1.799,9.603,5.059,12.977c3.262,3.374,7.289,5.062,12.084,5.062
		c2.312,0,4.563-0.402,6.752-1.206c2.188-0.805,4.048-1.872,5.582-3.204C680.811,320.237,682.472,318.089,684.255,315.122z
		 M684.255,302.887c-0.78-3.118-1.917-5.61-3.407-7.475c-1.492-1.866-3.465-3.368-5.916-4.51c-2.454-1.142-5.033-1.712-7.734-1.712
		c-4.461,0-8.294,1.434-11.499,4.302c-2.342,2.088-4.111,5.22-5.31,9.396H684.255z"/>
	<path d="M698.957,284.763h5.846v8.145c2.337-3.119,4.926-5.451,7.767-6.997c2.84-1.544,5.93-2.317,9.269-2.317
		c3.397,0,6.411,0.862,9.042,2.588c2.632,1.727,4.574,4.051,5.826,6.975c1.252,2.923,1.879,7.474,1.879,13.656v23.384h-5.847
		v-21.672c0-5.234-0.216-8.729-0.651-10.482c-0.677-3.007-1.977-5.268-3.897-6.786c-1.92-1.518-4.427-2.276-7.517-2.276
		c-3.536,0-6.705,1.169-9.501,3.508c-2.8,2.339-4.645,5.234-5.535,8.686c-0.556,2.256-0.834,6.375-0.834,12.361v16.661h-5.846
		V284.763z"/>
</g>
<g>
	<path d="M77.83,151.209h13.498v18.125c4.698-6.684,9.522-11.569,14.479-14.655c6.822-4.111,13.998-6.17,21.527-6.17
		c5.082,0,9.908,1,14.477,2.989c4.568,1.993,8.303,4.644,11.198,7.955c2.895,3.312,5.404,8.05,7.529,14.221
		c4.487-8.228,10.097-14.476,16.831-18.752c6.734-4.274,13.979-6.412,21.739-6.412c7.245,0,13.642,1.832,19.188,5.496
		c5.548,3.663,9.666,8.773,12.36,15.329c2.694,6.556,4.041,16.391,4.041,29.502v57.269h-13.787v-57.269
		c0-11.246-0.801-18.978-2.402-23.188c-1.602-4.207-4.341-7.6-8.217-10.171c-3.876-2.569-8.504-3.856-13.884-3.856
		c-6.536,0-12.509,1.928-17.922,5.784c-5.415,3.857-9.371,9.001-11.868,15.427c-2.498,6.427-3.747,17.161-3.747,32.202v41.071
		h-13.498v-53.702c0-12.663-0.787-21.259-2.362-25.791c-1.576-4.531-4.323-8.16-8.243-10.895c-3.921-2.731-8.58-4.097-13.979-4.097
		c-6.234,0-12.068,1.88-17.499,5.64c-5.433,3.76-9.448,8.822-12.051,15.185c-2.603,6.363-3.906,16.101-3.906,29.213v44.446H77.83
		V151.209z"/>
	<path d="M367.647,151.209v104.897h-13.305v-18.028c-5.655,6.879-12.003,12.051-19.042,15.522
		c-7.038,3.471-14.736,5.206-23.09,5.206c-14.848,0-27.526-5.383-38.035-16.149c-10.509-10.763-15.764-23.862-15.764-39.288
		c0-15.102,5.303-28.021,15.908-38.758c10.605-10.735,23.364-16.102,38.275-16.102c8.613,0,16.405,1.832,23.381,5.496
		c6.974,3.663,13.096,9.159,18.366,16.487v-19.283H367.647z M313.704,161.526c-7.51,0-14.446,1.848-20.8,5.538
		c-6.358,3.693-11.413,8.878-15.17,15.555c-3.754,6.677-5.632,13.739-5.632,21.185c0,7.386,1.894,14.448,5.68,21.188
		c3.789,6.739,8.877,11.987,15.264,15.742c6.388,3.76,13.243,5.635,20.562,5.635c7.383,0,14.38-1.858,20.994-5.586
		c6.613-3.723,11.699-8.763,15.262-15.116c3.564-6.358,5.345-13.514,5.345-21.479c0-12.131-3.997-22.276-11.989-30.428
		C335.227,165.605,325.39,161.526,313.704,161.526z"/>
	<path d="M502.721,110.716v145.39h-13.304v-18.028c-5.656,6.879-12.004,12.051-19.042,15.522s-14.736,5.206-23.091,5.206
		c-14.847,0-27.526-5.383-38.035-16.149c-10.509-10.763-15.763-23.862-15.763-39.288c0-15.102,5.303-28.021,15.908-38.758
		C420,153.876,432.758,148.51,447.67,148.51c8.612,0,16.404,1.832,23.38,5.496c6.975,3.663,13.096,9.159,18.367,16.487v-59.776
		H502.721z M448.777,161.526c-7.51,0-14.445,1.848-20.799,5.538c-6.358,3.693-11.414,8.878-15.169,15.555
		c-3.755,6.677-5.632,13.739-5.632,21.185c0,7.386,1.893,14.448,5.68,21.188c3.788,6.739,8.877,11.987,15.264,15.742
		c6.387,3.76,13.242,5.635,20.561,5.635c7.385,0,14.381-1.858,20.994-5.586c6.613-3.723,11.7-8.763,15.263-15.116
		c3.563-6.358,5.346-13.514,5.346-21.479c0-12.131-3.997-22.276-11.99-30.428C470.302,165.605,460.464,161.526,448.777,161.526z"/>
</g>
<polygon points="725.27,203.658 725.27,242.802 555.441,242.802 555.441,203.658 542.137,203.658 542.137,242.802 542.137,256.106 
	542.137,256.106 555.441,256.106 555.441,256.106 725.27,256.106 725.27,256.106 738.573,256.106 738.573,256.106 738.573,242.802 
	738.573,203.658 "/>
</svg>
